<svg xmlns="http://www.w3.org/2000/svg" version="1.1" xmlns:xlink="http://www.w3.org/1999/xlink" width="600" height="600"><svg xmlns="http://www.w3.org/2000/svg" version="1.1" xmlns:xlink="http://www.w3.org/1999/xlink" width="600" height="600"><svg xmlns="http://www.w3.org/2000/svg" xmlns:xlink="http://www.w3.org/1999/xlink" viewBox="0 0 600 600"><defs><linearGradient id="uuid-87b1e4e2-a3d4-4ba7-9e98-3a2a8a29efe4" x1="476.78" y1="267.58" x2="538.61" y2="267.58" gradientUnits="userSpaceOnUse"><stop offset="0" stop-color="#e6d388"></stop><stop offset="1" stop-color="#8f896e"></stop></linearGradient></defs><g id="uuid-a9a6eb2f-2381-455a-a2ff-926701c1a588"><path d="M187.07,186.19c35.04-46.96,88.06-95.26,118.17-145.5,77.37,117.17,202.74,186.23,152.62,353.8-34.7,99.25-83.04,86.36-122.76,158.43-195.83-17.22-234.65-243.88-148.04-366.73" style="fill:#3b7e80;"></path></g><g id="uuid-95d0e644-6fb0-4716-a3fb-ff4c53506955"><path d="M467.46,343.2c3.68.26-95.75,39.37-107.69,55.74-54.78-36.54,124.31-157.5,62.5-211.85-8.9,56.57-59.48,88.91-90.86,129.03.5-26.94-8.11-77.19-.27-101.95,22.53-35.79,17.44-112.52,19.1-113.91l-12.57-13.72c-.59,43.08,5.21,95.1-29.3,126.96-.06,13.95-.01,47.5.14,79.97,0-.12-.01-.24-.02-.36-3.01,3.09-14.81-9.63-17.35-12.2-104.07-105.34-74.55-122.43-63.28-143.67-20.73,23.76-35.48,42.12-35.48,42.12,5.96,76.57,126.45,136.32,108.85,227.86-40.02-27.2-131.63-98.02-148.66-151.27-27.08,63.08,68.54,109.52,91.38,138.38,59.63,44.04,57.87,105.7,55.02,122.31-45.93-43.37-88.76-23.23-93.83-22.3,0,0,53.4,21.9,96.87,93.45h13.59l23.55-41.87c0-151.59,126.59-186.53,126.59-186.53l1.71-16.2Z" style="fill:#3e6c69;"></path></g><g id="uuid-a4a079aa-b0d3-477b-b60b-2d22cf25c4e6"><path d="M460.48,343.71s-68.17,25.87-95.29,42.23c-39.88,24.06-40.36,40.48-56.57,78.53l-.68-77.17c-2.54-.39-4.19,1.23-6.07,1.79-.94,24.18.94,46.9-1.06,71.37-8.01-19.22-19.44-44.87-37.4-55.29l-4.87,2.39c55.46,49.27,34.34,108.52,43.57,180.65-.09-.42,6.79-.42,6.79-.42,0,0-22.54-165.45,82.83-210.09,11.22-4.76,66.45-29.85,66.45-29.85l2.31-4.14Z" style="fill:#e6d388;"></path><path d="M235.88,386.89c3,2.02,5.73,4.7,8.07,7.44l6.47-2.69c-3.73-4.1-6.23-6.4-10.33-9.51-40.77-27.69-92.15-55.27-92.87-110.93-.43-.07-.97.22-1.39.11-12.84,55.62,51.57,89.59,90.05,115.58Z" style="fill:#e6d388;"></path><path d="M576.05,187.73c-10.51-24-74.93-10.37-93.05-5.39-13.7,3.72-43.96,12.9-43.96,12.9l3.62,6.04s65.47-19.47,95.93-7.89c14.77,5.61-9.83,32.02-12.09,34.05l2.52,9.66c46.44-52.31,14.54-53.85-29.09-53.85,63.42-12.07,94.82,2.38,36.64,58.73l2.02,11.19c14.7-13.3,44.96-47.17,37.44-65.44Z" style="fill:#e6d388;"></path><path d="M476.78,267.58c.69,40.63,61.13,40.64,61.83,0-.69-40.63-61.13-40.63-61.83,0Z" style="fill:url(#uuid-87b1e4e2-a3d4-4ba7-9e98-3a2a8a29efe4);"></path><path d="M474.01,281.19S212.98,433.45,86.36,449.76c-48.97,6.31.26-50.75,25.77-71.25l-5.43-8.49c-49.21,38.45-98.33,99.51-21.15,91.83-39.45,7.68-117.55,16.1,18.22-97.6l-1.04-3.48c-114.71,62.47-121.98,148.52-22.99,113.86,254.32-88.78,397.12-181.34,397.12-181.34l-2.86-12.1Z" style="fill:#e6d388;"></path><path d="M301.01,367.38c2.81-1.33,8.18-3.51,8.18-3.51,0,0,5.35-19.73,9.87-27.69,19.5-34.3,52.52-54.79,80.96-96.74,10.75-15.85,18.92-33.16,22.25-52.34-1.21-2.71-2.66-5.3-4.35-7.75l-2.26-.97c-1.76,20.81-8.98,41.66-21.27,59-15.53,21.93-35.41,40.31-53.68,60.32-3.12,3.42-30.56,32.92-32.22,42.51l-.45-39.95.34-86.75c.01-3.7,4.2-5.34,6.22-7.61,29.02-28.29,21.56-82.7,23.08-119.35-1.77-1.93-5.6-5.42-7.19-7.54-2.08,35.65,8.28,95.62-21.75,122.92-2.19-8.47,2.96-55.01-3.29-54.1-1.59-.22-3.83.82-3.83,3.4.05,13.57-.5,139.28.36,148.97l-1.15,36.78c-3.67-2.37-5.19-5.14-6.86-7.59-27.07-39.94-93.98-89.24-101.58-150.02l-5.3,6.83c9.58,63.91,67.84,96.51,102.04,146.07,6.26,10.68,9.07,23.28,11.89,35.12Z" style="fill:#e6d388;"></path></g></svg></svg><style>@media (prefers-color-scheme: light) { :root { filter: none; } }
@media (prefers-color-scheme: dark) { :root { filter: none; } }
</style></svg>